<mxfile host="Electron" agent="Mozilla/5.0 (X11; Linux x86_64) AppleWebKit/537.36 (KHTML, like Gecko) draw.io/26.0.9 Chrome/128.0.6613.186 Electron/32.2.5 Safari/537.36" version="26.0.9">
  <diagram name="Página-1" id="af3S3i82MjZDZSI4TJaX">
    <mxGraphModel dx="819" dy="477" grid="1" gridSize="10" guides="1" tooltips="1" connect="1" arrows="1" fold="1" page="1" pageScale="1" pageWidth="827" pageHeight="1169" math="0" shadow="0">
      <root>
        <mxCell id="0" />
        <mxCell id="1" parent="0" />
        <mxCell id="l_5whwfdZYpKS7ps5CNv-7" value="Form de login" style="edgeStyle=orthogonalEdgeStyle;rounded=0;orthogonalLoop=1;jettySize=auto;html=1;exitX=1;exitY=1;exitDx=0;exitDy=0;entryX=0;entryY=0.5;entryDx=0;entryDy=0;strokeColor=default;curved=1;" edge="1" parent="1" source="l_5whwfdZYpKS7ps5CNv-3" target="l_5whwfdZYpKS7ps5CNv-5">
          <mxGeometry relative="1" as="geometry" />
        </mxCell>
        <mxCell id="l_5whwfdZYpKS7ps5CNv-8" value="Form de conta" style="edgeStyle=orthogonalEdgeStyle;rounded=0;orthogonalLoop=1;jettySize=auto;html=1;exitX=0.75;exitY=1;exitDx=0;exitDy=0;entryX=0;entryY=0.5;entryDx=0;entryDy=0;curved=1;" edge="1" parent="1" source="l_5whwfdZYpKS7ps5CNv-3" target="l_5whwfdZYpKS7ps5CNv-6">
          <mxGeometry x="0.3418" y="50" relative="1" as="geometry">
            <mxPoint as="offset" />
          </mxGeometry>
        </mxCell>
        <mxCell id="l_5whwfdZYpKS7ps5CNv-3" value="Usuário não&lt;div&gt;Logado&lt;/div&gt;" style="verticalLabelPosition=middle;verticalAlign=middle;html=1;shape=process;whiteSpace=wrap;rounded=1;size=0.14;arcSize=6;labelPosition=center;align=center;" vertex="1" parent="1">
          <mxGeometry x="100" y="240" width="100" height="60" as="geometry" />
        </mxCell>
        <mxCell id="l_5whwfdZYpKS7ps5CNv-4" value="Serviço" style="verticalLabelPosition=middle;verticalAlign=middle;html=1;shape=process;whiteSpace=wrap;rounded=1;size=0.14;arcSize=6;labelPosition=center;align=center;" vertex="1" parent="1">
          <mxGeometry x="640" y="550" width="100" height="60" as="geometry" />
        </mxCell>
        <mxCell id="l_5whwfdZYpKS7ps5CNv-15" value="Acessar serviço" style="edgeStyle=orthogonalEdgeStyle;rounded=0;orthogonalLoop=1;jettySize=auto;html=1;entryX=0.5;entryY=0;entryDx=0;entryDy=0;curved=1;" edge="1" parent="1" target="l_5whwfdZYpKS7ps5CNv-4">
          <mxGeometry x="-0.0947" relative="1" as="geometry">
            <mxPoint x="690" y="440" as="sourcePoint" />
            <mxPoint as="offset" />
          </mxGeometry>
        </mxCell>
        <mxCell id="l_5whwfdZYpKS7ps5CNv-5" value="Validar Conta" style="ellipse;whiteSpace=wrap;html=1;aspect=fixed;" vertex="1" parent="1">
          <mxGeometry x="334" y="230" width="80" height="80" as="geometry" />
        </mxCell>
        <mxCell id="l_5whwfdZYpKS7ps5CNv-6" value="Cadastrar conta" style="ellipse;whiteSpace=wrap;html=1;aspect=fixed;" vertex="1" parent="1">
          <mxGeometry x="360" y="470" width="80" height="80" as="geometry" />
        </mxCell>
        <mxCell id="l_5whwfdZYpKS7ps5CNv-12" value="Conta inexistente" style="edgeStyle=orthogonalEdgeStyle;rounded=0;orthogonalLoop=1;jettySize=auto;html=1;entryX=0.5;entryY=1;entryDx=0;entryDy=0;curved=1;" edge="1" parent="1" source="l_5whwfdZYpKS7ps5CNv-9" target="l_5whwfdZYpKS7ps5CNv-5">
          <mxGeometry x="0.259" y="-10" relative="1" as="geometry">
            <mxPoint as="offset" />
          </mxGeometry>
        </mxCell>
        <mxCell id="l_5whwfdZYpKS7ps5CNv-9" value="Usuários" style="strokeWidth=2;html=1;shape=mxgraph.flowchart.annotation_1;align=left;pointerEvents=1;" vertex="1" parent="1">
          <mxGeometry x="460" y="380" width="50" height="50" as="geometry" />
        </mxCell>
        <mxCell id="l_5whwfdZYpKS7ps5CNv-10" value="Conta para checar&lt;div&gt;validade&lt;/div&gt;" style="edgeStyle=orthogonalEdgeStyle;rounded=0;orthogonalLoop=1;jettySize=auto;html=1;exitX=1;exitY=0.5;exitDx=0;exitDy=0;entryX=0.5;entryY=0;entryDx=0;entryDy=0;entryPerimeter=0;curved=1;" edge="1" parent="1" source="l_5whwfdZYpKS7ps5CNv-5" target="l_5whwfdZYpKS7ps5CNv-9">
          <mxGeometry x="0.1159" y="-15" relative="1" as="geometry">
            <mxPoint as="offset" />
          </mxGeometry>
        </mxCell>
        <mxCell id="l_5whwfdZYpKS7ps5CNv-11" value="Conta a ser &lt;br&gt;registrada" style="edgeStyle=orthogonalEdgeStyle;rounded=0;orthogonalLoop=1;jettySize=auto;html=1;exitX=1;exitY=0.5;exitDx=0;exitDy=0;entryX=0.5;entryY=1;entryDx=0;entryDy=0;entryPerimeter=0;curved=1;" edge="1" parent="1" source="l_5whwfdZYpKS7ps5CNv-6" target="l_5whwfdZYpKS7ps5CNv-9">
          <mxGeometry relative="1" as="geometry" />
        </mxCell>
        <mxCell id="l_5whwfdZYpKS7ps5CNv-16" value="Status da validação" style="edgeStyle=orthogonalEdgeStyle;rounded=0;orthogonalLoop=1;jettySize=auto;html=1;exitX=0;exitY=0;exitDx=0;exitDy=0;entryX=0.993;entryY=0.364;entryDx=0;entryDy=0;entryPerimeter=0;curved=1;" edge="1" parent="1" source="l_5whwfdZYpKS7ps5CNv-5" target="l_5whwfdZYpKS7ps5CNv-3">
          <mxGeometry relative="1" as="geometry" />
        </mxCell>
      </root>
    </mxGraphModel>
  </diagram>
</mxfile>
